<?xml version="1.0" encoding="UTF-8"?>
<svg width="132px" height="104px" viewBox="0 0 132 104" version="1.1" xmlns="http://www.w3.org/2000/svg" xmlns:xlink="http://www.w3.org/1999/xlink">
    <!-- Generator: Sketch 56.3 (81716) - https://sketch.com -->
    <title>Combined Shape</title>
    <desc>Created with Sketch.</desc>
    <g id="Page-3" stroke="none" stroke-width="1" fill="none" fill-rule="evenodd" stroke-linecap="square">
        <g id="Artboard" transform="translate(-58.000000, -53.000000)" stroke="#000000" stroke-width="3">
            <path d="M91.5,95.16 L75.25,105.16 L91.5,95.16 L75.25,85.16 L91.5,95.16 L107.75,85.16 L124,95.16 L140.25,85.16 L156.5,95.16 L140.25,105.16 L124,95.16 L107.75,105.16 L124,115.16 L140.25,105.16 L156.5,115.16 L140.25,105.16 L124,115.16 L107.75,105.16 L91.5,115.16 L107.75,105.16 L91.5,95.16 L107.75,85.16 L124,95.16 L140.25,85.16 L124,75.16 L107.75,85.16 L91.5,75.16 L107.75,85.16 L124,75.16 L107.75,65.16 L124,75.16 L140.25,65.16 L124,75.16 L140.25,85.16 L156.5,75.16 L140.25,85.16 L156.5,95.16 L172.75,85.16 L156.5,95.16 L172.75,105.16 L156.5,95.16 L140.25,105.16 L124,95.16 L107.75,105.16 L91.5,95.16 Z M124,115.16 L140.25,125.16 L124,115.16 L107.75,125.16 L124,115.16 Z M59,115.159948 L124,155.159948 L59,115.159948 Z M189,115.159948 L173.396182,105.557599 L189,115.159948 Z M189,115.159948 L124,155.159948 L189,115.159948 Z M59,115.16 L74.603818,105.55765 L59,115.16 Z M59,95.1599484 L124,135.159948 L59,95.1599484 Z M189,95.1599484 L124,55.1599484 L189,95.1599484 Z M189,95.1599484 L124,135.159948 L189,95.1599484 Z M124,55.1599484 L59,95.1599484 L124,55.1599484 Z" id="Combined-Shape"></path>
        </g>
    </g>
</svg>