<?xml version="1.0" encoding="UTF-8"?>
<svg width="132px" height="110px" viewBox="0 0 132 110" version="1.1" xmlns="http://www.w3.org/2000/svg" xmlns:xlink="http://www.w3.org/1999/xlink">
    <!-- Generator: Sketch 56.3 (81716) - https://sketch.com -->
    <title>Combined Shape</title>
    <desc>Created with Sketch.</desc>
    <g id="Page-3" stroke="none" stroke-width="1" fill="none" fill-rule="evenodd" stroke-linecap="square">
        <g id="Artboard" transform="translate(-58.000000, -47.000000)" stroke="#000000" stroke-width="3">
            <path d="M91.5,89.16 L75.25,99.16 L91.5,89.16 L75.25,79.16 L91.5,89.16 L107.75,79.16 L124,89.16 L140.25,79.16 L156.5,89.16 L140.25,99.16 L124,89.16 L107.75,99.16 L124,109.16 L140.25,99.16 L156.5,109.16 L140.25,99.16 L124,109.16 L107.75,99.16 L91.5,109.16 L107.75,99.16 L91.5,89.16 L107.75,79.16 L124,89.16 L140.25,79.16 L124,69.16 L107.75,79.16 L91.5,69.16 L107.75,79.16 L124,69.16 L107.75,59.16 L124,69.16 L140.25,59.16 L124,69.16 L140.25,79.16 L156.5,69.16 L140.25,79.16 L156.5,89.16 L172.75,79.16 L156.5,89.16 L172.75,99.16 L156.5,89.16 L140.25,99.16 L124,89.16 L107.75,99.16 L91.5,89.16 Z M124,109.16 L140.25,119.16 L124,109.16 L107.75,119.16 L124,109.16 Z M59,115.159948 L124,155.159948 L59,115.159948 Z M189,115.159948 L169.989549,103.461209 L189,115.159948 Z M189,115.159948 L124,155.159948 L189,115.159948 Z M59,115.16 L78.0104512,103.461261 L59,115.16 Z M59,89.1599484 L124,129.159948 L59,89.1599484 Z M189,89.1599484 L124,49.1599484 L189,89.1599484 Z M189,89.1599484 L124,129.159948 L189,89.1599484 Z M124,49.1599484 L59,89.1599484 L124,49.1599484 Z" id="Combined-Shape"></path>
        </g>
    </g>
</svg>